<svg xmlns="http://www.w3.org/2000/svg" xmlns:xlink="http://www.w3.org/1999/xlink" id="Layer_1" width="138.532" height="98.735" x="0" y="0" enable-background="new 0 0 138.532 98.735" version="1.1" viewBox="0 0 138.532 98.735" xml:space="preserve"><g><polyline fill="none" stroke="#A3ABB3" stroke-miterlimit="10" points="9.858 43.329 97.313 43.329 112.104 60.583 125.044 60.583 125.044 51.956"/><circle cx="125.045" cy="49.375" r="2.772" fill="none" stroke="#A3ABB3" stroke-miterlimit="10"/><polyline fill="none" stroke="#A3ABB3" stroke-miterlimit="10" points="9.858 46.603 75.591 46.603 81.908 59.042 105.94 58.118 110.716 64.588 125.044 64.588 132.747 67.978"/><circle cx="135.26" cy="69.09" r="2.772" fill="none" stroke="#A3ABB3" stroke-miterlimit="10"/><polyline fill="none" stroke="#A3ABB3" stroke-miterlimit="10" points="5.804 49.375 36.616 49.375 44.626 60.583 44.626 69.091 61.882 69.091 67.452 76.297"/><circle cx="69.408" cy="78.835" r="2.773" fill="none" stroke="#A3ABB3" stroke-miterlimit="10"/><polyline fill="none" stroke="#A3ABB3" stroke-miterlimit="10" points="5.804 35.164 16.28 19.912 34.305 19.912 40.313 27.538 67.452 27.538 67.452 6.046"/><circle cx="67.451" cy="3.273" r="2.772" fill="none" stroke="#A3ABB3" stroke-miterlimit="10"/><polyline fill="none" stroke="#A3ABB3" stroke-miterlimit="10" points=".5 31.004 .5 12.979 13.507 3.273 28.04 3.273 42.624 22.685 58.8 22.685 58.8 12.517"/><circle cx="58.8" cy="9.801" r="2.773" fill="none" stroke="#A3ABB3" stroke-miterlimit="10"/><polyline fill="none" stroke="#A3ABB3" stroke-miterlimit="10" points="13.737 37.937 22.288 31.004 73.589 31.004 81.677 40.016 92.538 40.016 92.538 14.828 102.013 7.028"/><circle cx="104.138" cy="5.404" r="2.773" fill="none" stroke="#A3ABB3" stroke-miterlimit="10"/><polyline fill="none" stroke="#A3ABB3" stroke-miterlimit="10" points="5.804 54.121 12.235 60.583 38.083 60.583 38.083 71.863 44.048 76.297 56.026 76.297 56.026 90.656 51.255 93.887"/><circle cx="48.97" cy="95.462" r="2.773" fill="none" stroke="#A3ABB3" stroke-miterlimit="10"/><polyline fill="none" stroke="#A3ABB3" stroke-miterlimit="10" points="5.804 59.589 11.986 66.317 22.425 66.317 35.597 78.835 35.597 83.945 46.197 83.945"/><circle cx="48.97" cy="83.945" r="2.773" fill="none" stroke="#A3ABB3" stroke-miterlimit="10"/></g></svg>