<svg xmlns="http://www.w3.org/2000/svg" xmlns:xlink="http://www.w3.org/1999/xlink" id="katman_1" width="640" height="640" x="0" y="0" enable-background="new 0 0 640 640" version="1.1" viewBox="0 0 640 640" xml:space="preserve"><path fill="#DFE9EF" d="M524.8,288H115.2C97.536,288,96,302.304,96,320c0,17.695,1.536,32,19.2,32h409.6	c17.664,0,19.2-14.305,19.2-32C544,302.304,542.464,288,524.8,288z M524.8,416H115.2C97.536,416,96,430.304,96,448s1.536,32,19.2,32	h409.6c17.664,0,19.2-14.304,19.2-32S542.464,416,524.8,416z M115.2,224h409.6c17.664,0,19.2-14.304,19.2-32s-1.536-32-19.2-32	H115.2C97.536,160,96,174.304,96,192S97.536,224,115.2,224L115.2,224z"/></svg>