<svg xmlns="http://www.w3.org/2000/svg" xmlns:xlink="http://www.w3.org/1999/xlink" width="188" height="200" version="1.1" viewBox="0 0 188 200"><title>Group 2</title><desc>Created with Sketch.</desc><g id="Page-1" fill="none" fill-rule="evenodd" stroke="none" stroke-width="1"><g id="Group-2"><polygon id="Shape" fill="#DD0031" points="94 0 94 0 94 0 .9 33.2 15.1 156.3 94 200 94 200 94 200 172.9 156.3 187.1 33.2"/><polygon id="Shape" fill="#C3002F" points="94 0 94 22.2 94 22.1 94 123.4 94 123.4 94 200 94 200 172.9 156.3 187.1 33.2"/><g id="Clipped" fill="#FFF" transform="translate(37.000000, 34.000000)"><g id="Group"><polygon id="Shape" points="47.417 60.122 6.819 44.987 .673 19.068 32.881 25.512"/><polygon id="Shape" points="67.199 60.122 107.802 44.987 113.955 19.068 81.729 25.512"/><polygon id="Shape" points="34.083 23.115 13.55 19.068 27.485 .637 45.018 .637"/><polygon id="Shape" points="80.232 23.115 100.76 19.068 86.824 .637 69.298 .637"/><polygon id="Shape" points="77.891 27.886 63.376 65.743 67.719 94.476 46.146 94.476 51.037 65.702 36.478 27.886 45.92 .637 68.24 .637"/><polygon id="Shape" points="16.776 63.939 31.007 71.586 31.007 101.778 7.629 81.776 7.629 47.982 16.776 51.732"/><polygon id="Shape" points="97.388 63.939 83.152 71.586 83.152 101.778 106.536 81.776 106.536 47.982 97.388 51.732"/><polygon id="Shape" points="72.519 60.646 67.199 63.421 67.199 68.631 70.529 96.325 63.394 103.577 57.189 103.635 50.979 103.577 43.838 96.325 47.174 68.631 47.174 63.421 41.866 60.646 34.505 73.011 34.505 117.905 42.104 110.937 57.189 110.771 72.275 110.937 79.856 117.905 79.856 73.011"/><polygon id="Shape" points="67.048 133.991 47.186 133.991 40.23 126.84 47.186 119.687 67.048 119.687 74.23 126.84"/><polygon id="Shape" points="31.007 119.687 18.043 105.299 18.043 95.48 31.007 103.953"/><polygon id="Shape" points="82.788 119.687 95.741 105.299 95.741 95.48 82.788 103.953"/><polygon id="Shape" points="70.639 117.905 43.728 117.905 38.391 125.214 34.505 123.189 43.601 114.065 70.865 114.065 79.856 123.189 76.04 125.214"/></g></g><g id="Clipped" fill="#FFF" transform="translate(36.000000, 34.000000)"><g id="Group"><polygon id="Shape" points="47.417 60.036 6.819 44.903 .673 18.984 32.881 25.428"/><polygon id="Shape" points="67.199 60.036 107.802 44.903 113.955 18.984 81.729 25.428"/><polygon id="Shape" points="34.083 23.031 13.55 18.984 27.485 .553 45.018 .553"/><polygon id="Shape" points="80.238 23.031 100.76 18.984 86.824 .553 69.298 .553"/><polygon id="Shape" points="77.891 27.799 63.376 65.659 67.719 94.394 46.146 94.394 51.037 65.618 36.478 27.799 45.914 .553 68.245 .553"/><polygon id="Shape" points="16.776 63.855 31.007 71.502 31.007 101.691 7.641 81.69 7.641 47.898 16.776 51.645"/><polygon id="Shape" points="97.388 63.855 83.152 71.502 83.152 101.691 106.536 81.69 106.536 47.898 97.388 51.645"/><polygon id="Shape" points="72.519 60.562 67.199 63.334 67.199 68.547 70.529 96.245 63.394 103.495 57.189 103.542 50.974 103.495 43.838 96.245 47.169 68.547 47.169 63.334 41.86 60.562 34.505 72.927 34.505 117.819 42.104 110.851 57.189 110.689 72.27 110.851 79.85 117.819 79.85 72.927"/><polygon id="Shape" points="67.048 133.911 47.186 133.911 40.23 126.753 47.186 119.6 67.048 119.6 74.224 126.753"/><polygon id="Shape" points="31.007 119.6 18.043 105.218 18.043 95.4 31.007 103.865"/><polygon id="Shape" points="82.788 119.6 95.741 105.218 95.741 95.4 82.788 103.865"/><polygon id="Shape" points="70.639 117.819 43.728 117.819 38.391 125.128 34.505 123.11 43.601 113.984 70.865 113.984 79.85 123.11 76.04 125.128"/></g></g></g></g></svg>