<svg xmlns="http://www.w3.org/2000/svg" xmlns:xlink="http://www.w3.org/1999/xlink" id="Layer_1" width="87.318" height="83.411" x="0" y="0" enable-background="new 0 0 87.318 83.411" version="1.1" viewBox="0 0 87.318 83.411" xml:space="preserve"><g id="DATA"><ellipse cx="43.659" cy="22.15" fill="#889597" rx="43.616" ry="16.3"/><path fill="#889597" d="M0.043,29.25c0,0,6.548,14.195,43.616,14.195c37.067,0,43.616-14.195,43.616-14.195v8.218 c0,0-7.969,14.195-43.616,14.195c-35.646,0-43.616-13.946-43.616-13.946V29.25z"/><path fill="#889597" d="M0.043,42.199c0,0,6.548,14.195,43.616,14.195c37.067,0,43.616-14.195,43.616-14.195v8.219 c0,0-7.969,14.193-43.616,14.193c-35.646,0-43.616-13.945-43.616-13.945V42.199z"/><path fill="#889597" d="M0.043,55.149c0,0,6.548,14.193,43.616,14.193c37.067,0,43.616-14.193,43.616-14.193v8.219 c0,0-7.969,14.193-43.616,14.193c-35.646,0-43.616-13.945-43.616-13.945V55.149z"/></g></svg>